<svg xmlns="http://www.w3.org/2000/svg" width="18.393" height="11.387" viewBox="0 0 18.393 11.387">
  <g id="Gruppe_8" data-name="Gruppe 8" transform="translate(11.361 0.004)">
    <path id="Pfad_20" data-name="Pfad 20" d="M0,0A.707.707,0,0,0-.383.068.706.706,0,0,0-.779.7v2.87H-9.95a1.411,1.411,0,0,0-1.411,1.411V6.394A1.411,1.411,0,0,0-9.95,7.8H-.779v2.873a.706.706,0,0,0,.4.634.709.709,0,0,0,.31.071.715.715,0,0,0,.435-.146l6.4-4.991a.7.7,0,0,0,0-1.111L.362.146A.7.7,0,0,0,0,0" fill="#153966"/>
  </g>
</svg>
