<svg id="Ebene_1" data-name="Ebene 1" xmlns="http://www.w3.org/2000/svg" viewBox="0 0 143.83 93.07"><defs><style>.cls-1{fill:#e40521;}.cls-2{fill:#fff;}.cls-3{fill:#1d1d1b;}</style></defs><title>kmsg_logo</title><polygon class="cls-1" points="0 0 0 93.07 143.83 93.07 143.83 0 0 0 0 0"/><path class="cls-2" d="M779.12,740.73a5.07,5.07,0,0,1-1.25,1.73,6.15,6.15,0,0,1-2.06,1.2,8.23,8.23,0,0,1-2.84.45,10.85,10.85,0,0,1-2.87-.38,10,10,0,0,1-2.65-1.16l1.07-2.16a14.09,14.09,0,0,0,2.2,1,7,7,0,0,0,2.35.36,3.79,3.79,0,0,0,2.43-.7,2.38,2.38,0,0,0,.88-2,2.09,2.09,0,0,0-.6-1.53,4.24,4.24,0,0,0-1.91-1l-1.8-.51a8.29,8.29,0,0,1-2-.82,4.16,4.16,0,0,1-1.29-1.19,4.34,4.34,0,0,1-.71-2.45,4.83,4.83,0,0,1,.41-2,4.53,4.53,0,0,1,1.17-1.56,5.45,5.45,0,0,1,1.8-1,7.08,7.08,0,0,1,2.34-.36,9.72,9.72,0,0,1,2.83.42,8.73,8.73,0,0,1,2.49,1.2l-1.26,2a11.66,11.66,0,0,0-2.08-1,5.92,5.92,0,0,0-1.9-.3,3.06,3.06,0,0,0-2,.62,2,2,0,0,0-.76,1.66,1.61,1.61,0,0,0,.5,1.24,4.52,4.52,0,0,0,1.74.83l2,.58a6.76,6.76,0,0,1,3,1.71,4.2,4.2,0,0,1,1.16,3.07,5,5,0,0,1-.43,2ZM795.43,739a8,8,0,0,1-1.35,2.74,6,6,0,0,1-2.17,1.74,6.74,6.74,0,0,1-2.92.61,7,7,0,0,1-3.13-.66,6.33,6.33,0,0,1-2.23-1.81,7.76,7.76,0,0,1-1.34-2.75,13,13,0,0,1-.44-3.47,12.26,12.26,0,0,1,.51-3.69A7.89,7.89,0,0,1,783.8,729a6,6,0,0,1,2.21-1.68,7,7,0,0,1,2.87-.57,6.78,6.78,0,0,1,3.1.67,6.2,6.2,0,0,1,2.2,1.84,8,8,0,0,1,1.3,2.75,13.2,13.2,0,0,1,.42,3.43,13,13,0,0,1-.46,3.58Zm-2.88-6.16a7,7,0,0,0-.62-2.11,3.19,3.19,0,0,0-1.18-1.34,3.48,3.48,0,0,0-1.86-.46,3.11,3.11,0,0,0-3,1.65,10,10,0,0,0-.88,4.66,11,11,0,0,0,.91,5,3.16,3.16,0,0,0,3,1.72,3.51,3.51,0,0,0,1.64-.36,3,3,0,0,0,1.17-1.13,6,6,0,0,0,.71-2,14.9,14.9,0,0,0,.24-2.9,19.21,19.21,0,0,0-.18-2.77Zm6.53,11V727h2.8v14.48h6.23l-.46,2.31ZM810.35,727h2.92v16.79h-2.92V727Zm11.49,8.88q-.34-.71-.66-1.43t-.6-1.39q-.28-.66-.51-1.23c-.15-.38-.27-.69-.35-.94l-.07.07q.1,1.09.12,2.32t0,2.35l.1,8.15h-2.8V727h3.21l4.05,8.22q.29.58.57,1.23t.51,1.23q.23.58.4,1.08c.11.33.19.6.24.79l.07-.07c0-.21,0-.51-.07-.89s-.06-.8-.08-1.25,0-.91-.06-1.38,0-.89,0-1.28l0-7.69h2.68v16.79h-3l-3.74-7.91Zm19.93,7.77A10.67,10.67,0,0,1,839,744a7.9,7.9,0,0,1-3.11-.57,6.15,6.15,0,0,1-2.36-1.81,7.78,7.78,0,0,1-1.42-2.66,12,12,0,0,1-.45-3.47,11.29,11.29,0,0,1,.77-4.44,7.24,7.24,0,0,1,2.38-3,6.09,6.09,0,0,1,1.92-1,7.6,7.6,0,0,1,2.23-.3,7.49,7.49,0,0,1,5,1.74l-1.4,1.74a6.22,6.22,0,0,0-1.71-1,5.28,5.28,0,0,0-1.81-.3,3.74,3.74,0,0,0-2,.49,3.65,3.65,0,0,0-1.3,1.36,6.82,6.82,0,0,0-.72,2.1,14.92,14.92,0,0,0-.23,2.71q0,3.5,1.23,5a3.25,3.25,0,0,0,1.35.94,5,5,0,0,0,1.81.33,4.54,4.54,0,0,0,2.22-.53V737h-2.87l-.39-2.31h6.06v8a9.43,9.43,0,0,1-2.5,1.06ZM848,727h9.34l-.37,2.31h-6.18v4.52h5.18v2.31h-5.18v5.21h6.79v2.43H848V727Zm16.87,8.88q-.34-.71-.66-1.43t-.6-1.39q-.28-.66-.51-1.23t-.35-.94l-.07.07q.1,1.09.12,2.32t0,2.35l.1,8.15h-2.8V727h3.21l4.05,8.22q.29.58.57,1.23t.51,1.23q.23.58.4,1.08c.11.33.19.6.24.79l.07-.07c0-.21,0-.51-.07-.89s-.06-.8-.09-1.25,0-.91-.06-1.38,0-.89,0-1.28l0-7.69h2.68v16.79h-3l-3.74-7.91Z" transform="translate(-753.92 -662.32)"/><path class="cls-2" d="M781.23,706.81c0-.26,0-.54,0-.83s0-.57,0-.84,0-.51,0-.73,0-.39,0-.52q-.1.41-.26,1.15t-.4,1.54l-3.05,10.66H775l-2.79-10.19q-.12-.41-.24-.89c-.08-.32-.15-.62-.22-.91s-.12-.56-.17-.8a4.64,4.64,0,0,1-.1-.53c0,.13,0,.32,0,.56s0,.52,0,.82,0,.61-.06.92,0,.61-.06.86l-.73,10.17h-2.8l1.54-16.79h3.73l2.59,9.54q.29,1.09.43,1.79l.21,1.06c0-.26.1-.64.2-1.14s.25-1.07.41-1.65l2.66-9.59h3.73l1.49,16.79H782l-.77-10.44Zm16.94,9.41a6.38,6.38,0,0,1-4.32,1.32,8.3,8.3,0,0,1-2.77-.4,4.79,4.79,0,0,1-1.8-1.08,3.8,3.8,0,0,1-1-1.58,6.43,6.43,0,0,1-.28-1.92V700.46h2.8V711.7a3.78,3.78,0,0,0,.73,2.67,3.09,3.09,0,0,0,2.27.74,2.88,2.88,0,0,0,2.3-.87,3.76,3.76,0,0,0,.76-2.54V700.46h2.8v12.08a4.61,4.61,0,0,1-1.52,3.67Zm16.11-2a5.07,5.07,0,0,1-1.25,1.73,6.16,6.16,0,0,1-2.06,1.2,8.25,8.25,0,0,1-2.83.45,10.89,10.89,0,0,1-2.87-.39,10,10,0,0,1-2.65-1.16l1.07-2.16a14.19,14.19,0,0,0,2.2,1,7,7,0,0,0,2.35.36,3.79,3.79,0,0,0,2.43-.7,2.38,2.38,0,0,0,.88-2,2.09,2.09,0,0,0-.6-1.53,4.25,4.25,0,0,0-1.91-1l-1.8-.51a8.24,8.24,0,0,1-2-.83,4.15,4.15,0,0,1-1.29-1.19,4.34,4.34,0,0,1-.7-2.45,4.84,4.84,0,0,1,.41-2,4.52,4.52,0,0,1,1.17-1.56,5.42,5.42,0,0,1,1.8-1,7.06,7.06,0,0,1,2.33-.36,9.68,9.68,0,0,1,2.84.42,8.72,8.72,0,0,1,2.49,1.2l-1.27,2a11.67,11.67,0,0,0-2.08-1,6,6,0,0,0-1.9-.3,3.06,3.06,0,0,0-2,.62,2,2,0,0,0-.76,1.66,1.6,1.6,0,0,0,.5,1.24,4.52,4.52,0,0,0,1.75.83l2,.58a6.76,6.76,0,0,1,3,1.71,4.2,4.2,0,0,1,1.16,3.07,5,5,0,0,1-.43,2Zm3.22-13.73h9.34l-.36,2.31H820.3v4.52h5.18v2.31H820.3v5.21h6.79v2.43H817.5V700.46Zm22.15,15.76a6.38,6.38,0,0,1-4.32,1.32,8.3,8.3,0,0,1-2.77-.4,4.78,4.78,0,0,1-1.8-1.08,3.79,3.79,0,0,1-1-1.58,6.39,6.39,0,0,1-.28-1.92V700.46h2.8V711.7a3.77,3.77,0,0,0,.73,2.67,3.09,3.09,0,0,0,2.27.74,2.88,2.88,0,0,0,2.3-.87,3.76,3.76,0,0,0,.76-2.54V700.46h2.8v12.08a4.61,4.61,0,0,1-1.52,3.67Zm18.21-9.41q0-.39,0-.83t0-.84q0-.4,0-.73c0-.22,0-.39,0-.52q-.1.41-.25,1.15t-.4,1.54L854,717.25h-2.37l-2.79-10.19q-.12-.41-.24-.89t-.22-.91c-.06-.29-.12-.56-.17-.8a4.65,4.65,0,0,1-.1-.53c0,.13,0,.32,0,.56s0,.52,0,.82,0,.61-.06.92,0,.61-.06.86l-.73,10.17h-2.8L846,700.46h3.73l2.59,9.54q.29,1.09.43,1.79l.21,1.06c0-.26.1-.64.2-1.14s.25-1.07.41-1.65l2.66-9.59H860l1.49,16.79h-2.8l-.78-10.44Z" transform="translate(-753.92 -662.32)"/><path class="cls-3" d="M771.13,681.75l5.47-7.84H780l-5.84,7.79,6.23,9h-3.6l-5.67-9Zm-2.82-7.84h2.8v16.79h-2.8V673.92Zm23.9,15.76a6.38,6.38,0,0,1-4.32,1.32,8.31,8.31,0,0,1-2.77-.4,4.79,4.79,0,0,1-1.8-1.08,3.78,3.78,0,0,1-1-1.58,6.39,6.39,0,0,1-.28-1.92V673.92h2.8v11.24a3.77,3.77,0,0,0,.73,2.67,3.09,3.09,0,0,0,2.27.74,2.88,2.88,0,0,0,2.3-.87,3.76,3.76,0,0,0,.76-2.54V673.92h2.8V686a4.61,4.61,0,0,1-1.52,3.68Zm10-6.88q-.34-.7-.66-1.43T801,680q-.28-.66-.51-1.23t-.35-.94l-.07.07q.1,1.09.12,2.32t0,2.35l.1,8.15h-2.8V673.92h3.21l4.05,8.22q.29.58.57,1.23t.51,1.23q.23.58.4,1.08c.11.33.19.6.24.79l.07-.07-.07-.89q0-.57-.09-1.25t-.06-1.38q0-.69,0-1.28l0-7.69h2.68v16.79h-3l-3.74-7.91Zm21.39,4.85a5.06,5.06,0,0,1-1.25,1.73,6.15,6.15,0,0,1-2.06,1.2,8.23,8.23,0,0,1-2.83.45,10.85,10.85,0,0,1-2.87-.39,10,10,0,0,1-2.65-1.16l1.07-2.16a14.08,14.08,0,0,0,2.2,1,7,7,0,0,0,2.35.36A3.79,3.79,0,0,0,820,688a2.38,2.38,0,0,0,.88-2,2.09,2.09,0,0,0-.6-1.53,4.24,4.24,0,0,0-1.91-1l-1.8-.51a8.29,8.29,0,0,1-2-.82,4.12,4.12,0,0,1-1.29-1.19,4.34,4.34,0,0,1-.71-2.45,4.83,4.83,0,0,1,.41-2,4.54,4.54,0,0,1,1.17-1.56,5.46,5.46,0,0,1,1.8-1,7.1,7.1,0,0,1,2.34-.36,9.67,9.67,0,0,1,2.83.42,8.69,8.69,0,0,1,2.49,1.2l-1.26,2a11.67,11.67,0,0,0-2.08-1,5.92,5.92,0,0,0-1.9-.3,3.07,3.07,0,0,0-2,.62,2,2,0,0,0-.76,1.66,1.6,1.6,0,0,0,.5,1.24,4.51,4.51,0,0,0,1.74.83l2,.58a6.75,6.75,0,0,1,3,1.71,4.19,4.19,0,0,1,1.16,3.07,5,5,0,0,1-.43,2Zm8.7-11.42v14.48h-2.8V676.23h-4.26v-2.31h11.65l-.36,2.31Z" transform="translate(-753.92 -662.32)"/></svg>