<svg xmlns="http://www.w3.org/2000/svg" xmlns:xlink="http://www.w3.org/1999/xlink" width="428" height="462" viewBox="0 0 428 462">
  <defs>
    <clipPath id="clip-path">
      <path id="Pfad_12" data-name="Pfad 12" d="M0,0H428V462H0Z" transform="translate(719 344)" stroke="#707070" stroke-width="1"/>
    </clipPath>
  </defs>
  <g id="Gruppe_maskieren_1" data-name="Gruppe maskieren 1" transform="translate(-719 -344)" clip-path="url(#clip-path)">
    <g id="surface3811" transform="translate(686.092 328.092)">
      <path id="Pfad_24" data-name="Pfad 24" d="M362.127,32.908A98.208,98.208,0,0,0,292.31,61.842L259.374,94.778a98.526,98.526,0,0,0-10.595,127l-27.006,27.006a98.526,98.526,0,0,0-127,10.595L61.842,292.31A98.757,98.757,0,1,0,201.5,431.973l32.936-32.936a98.089,98.089,0,0,0,28.934-69.817,99.758,99.758,0,0,0-3.628-26.43l-29.625,29.6a65.275,65.275,0,0,1-18.973,43.387l-32.908,32.908a65.838,65.838,0,1,1-93.109-93.109l32.908-32.908a65.464,65.464,0,0,1,79.836-10.019L152.964,317.56a16.473,16.473,0,1,0,23.292,23.292l164.6-164.6a16.471,16.471,0,1,0-23.292-23.292l-44.913,44.913a65.768,65.768,0,0,1,10.019-79.836l32.908-32.908a65.838,65.838,0,1,1,93.109,93.109L375.774,211.15a65.275,65.275,0,0,1-43.387,18.973l-29.6,29.625a99.758,99.758,0,0,0,26.43,3.628,98.089,98.089,0,0,0,69.817-28.934L431.973,201.5a98.766,98.766,0,0,0-69.846-168.6Zm0,0" fill="#153966"/>
    </g>
  </g>
</svg>
