<svg xmlns="http://www.w3.org/2000/svg" width="19.112" height="20.116" viewBox="0 0 19.112 20.116">
  <g id="surface20035" transform="translate(-5.207 -4.168)">
    <path id="Pfad_14" data-name="Pfad 14" d="M17.458,4.168a7.036,7.036,0,0,0-5.35,11.61c.123.143,3.019,3.514,3.993,4.441a1.964,1.964,0,0,0,2.716,0c1.132-1.079,3.879-4.306,3.994-4.441a7.037,7.037,0,0,0-5.352-11.61Zm0,9.554a2.514,2.514,0,1,1,2.514-2.514A2.514,2.514,0,0,1,17.458,13.722Zm0,0" transform="translate(-2.695)" fill="#163966"/>
    <path id="Pfad_15" data-name="Pfad 15" d="M20.412,30.668c-.29.33-.688.781-1.126,1.269,2.225.522,3.525,1.371,3.525,2.029,0,1.026-3.134,2.514-8.047,2.514s-8.047-1.488-8.047-2.514c0-.658,1.3-1.507,3.531-2.031-.436-.485-.837-.935-1.13-1.267-2.286.66-3.91,1.765-3.91,3.3,0,2.642,4.807,4.023,9.556,4.023s9.556-1.381,9.556-4.023C24.319,32.435,22.7,31.33,20.412,30.668Zm0,0" transform="translate(0 -13.706)" fill="#163966"/>
  </g>
</svg>
