<svg xmlns="http://www.w3.org/2000/svg" width="24.406" height="23.296" viewBox="0 0 24.406 23.296">
  <g id="surface22264" transform="translate(-3 -4)">
    <path id="Pfad_16" data-name="Pfad 16" d="M25.111,21.849c-2.191-2.55-4.019-4.333-4.58-4.869V15.555A.554.554,0,0,0,19.976,15H18.312a.554.554,0,0,0-.555.555v1.109H14.429V15.555A.554.554,0,0,0,13.875,15H12.211a.554.554,0,0,0-.555.555V16.98c-.561.535-2.39,2.318-4.58,4.869A8.091,8.091,0,0,0,5,27.2c0,1.038.54,4.381.561,4.524a.554.554,0,0,0,.548.466H8.883a.554.554,0,0,0,.555-.555v-.555H22.749v.555a.554.554,0,0,0,.555.555h2.773a.554.554,0,0,0,.548-.466c.022-.143.559-3.48.561-4.524A8.107,8.107,0,0,0,25.111,21.849ZM13.875,26.093H11.656V24.984h2.219Zm0-2.219H11.656V22.765h2.219Zm0-2.219H11.656V20.547h2.219ZM17.2,26.093H14.984V24.984H17.2Zm0-2.219H14.984V22.765H17.2Zm0-2.219H14.984V20.547H17.2Zm3.328,4.437H18.312V24.984h2.219Zm0-2.219H18.312V22.765h2.219Zm0-2.219H18.312V20.547h2.219Zm0,0" transform="translate(-0.891 -4.899)" fill="#163966"/>
    <path id="Pfad_17" data-name="Pfad 17" d="M25.783,12.32a1.364,1.364,0,0,1-.163-.011c-.232-.037-1.049-.245-2.266-.559-.659-.171-1.255-.323-1.437-.362a1.661,1.661,0,0,1-1.127-1.2c-.089-.271-.611-1.5-1-2.392a20.354,20.354,0,0,0-4.587-.47h0a20.362,20.362,0,0,0-4.589.47c-.388.895-.91,2.121-1,2.392A1.668,1.668,0,0,1,8.5,11.384c-.18.041-.732.182-1.356.342-1.281.327-2.134.544-2.349.579A1.488,1.488,0,0,1,3.195,11c0-.032-.607-3.478.327-4.3C5.552,4.9,9.476,4,15.2,4H15.2c5.724,0,9.65.9,11.67,2.687l.011.009c.934.826.332,4.271.327,4.305A1.534,1.534,0,0,1,25.783,12.32Zm0,0" fill="#163966"/>
  </g>
</svg>
